<svg width="817.4" height="626.45" version="1.1" viewBox="0 0 817.4 626.45" xmlns="http://www.w3.org/2000/svg">
 <defs>
  <clipPath id="c">
   <path d="m0 0h614v470h-614z"/>
  </clipPath>
  <clipPath id="b">
   <path d="m0 0h614v470h-614z"/>
  </clipPath>
  <clipPath id="a">
   <path d="m0 0h614v470h-614z"/>
  </clipPath>
 </defs>
 <g opacity=".82">
  <path transform="scale(1.3333)" d="m387.83 325.28c-123.8 119.74-260.56 176.33-305.46 126.41-44.906-49.922 19.051-187.46 142.85-307.19 123.8-119.73 260.55-176.33 305.46-126.41 44.902 49.922-19.051 187.45-142.85 307.19z" clip-path="url(#c)" fill="#bf544d" fill-opacity=".74902"/>
 </g>
 <g opacity=".95">
  <path transform="scale(1.3333)" d="m306.43 111.28c169.29-0.144 306.57 55.078 306.62 123.35 0.055 68.266-137.14 123.72-306.43 123.87-169.28 0.149-306.57-55.078-306.62-123.34-0.055-68.265 137.14-123.72 306.43-123.87z" clip-path="url(#b)" fill="#4d65bf" fill-opacity=".74902"/>
 </g>
 <g opacity=".97">
  <path transform="scale(1.3333)" d="m379.17 138.35c134.75 108.97 211.46 240.53 171.34 293.85-40.125 53.317-181.89 8.2-316.64-100.77-134.75-108.97-211.46-240.53-171.34-293.85 40.121-53.312 181.89-8.195 316.64 100.77z" clip-path="url(#a)" fill="#287600" fill-opacity=".50196"/>
 </g>
</svg>